<?xml version="1.0" encoding="UTF-8" standalone="no"?>
<svg
   xmlns:dc="http://purl.org/dc/elements/1.1/"
   xmlns:cc="http://creativecommons.org/ns#"
   xmlns:rdf="http://www.w3.org/1999/02/22-rdf-syntax-ns#"
   xmlns:svg="http://www.w3.org/2000/svg"
   xmlns="http://www.w3.org/2000/svg"
   xmlns:sodipodi="http://sodipodi.sourceforge.net/DTD/sodipodi-0.dtd"
   xmlns:inkscape="http://www.inkscape.org/namespaces/inkscape"
   width="137.925"
   height="118.403"
   version="1.1"
   id="svg49"
   sodipodi:docname="obspy_logo_no_text.svg"
   inkscape:export-filename="/home/derrick/Gits/presentations/ssa_2024/images/obspy/obspy_logo_no_text.png"
   inkscape:export-xdpi="599.97821"
   inkscape:export-ydpi="599.97821"
   inkscape:version="0.92.5 (2060ec1f9f, 2020-04-08)">
  <metadata
     id="metadata55">
    <rdf:RDF>
      <cc:Work
         rdf:about="">
        <dc:format>image/svg+xml</dc:format>
        <dc:type
           rdf:resource="http://purl.org/dc/dcmitype/StillImage" />
        <dc:title></dc:title>
      </cc:Work>
    </rdf:RDF>
  </metadata>
  <defs
     id="defs53" />
  <sodipodi:namedview
     pagecolor="#ffffff"
     bordercolor="#666666"
     borderopacity="1"
     objecttolerance="10"
     gridtolerance="10"
     guidetolerance="10"
     inkscape:pageopacity="0"
     inkscape:pageshadow="2"
     inkscape:window-width="1848"
     inkscape:window-height="1016"
     id="namedview51"
     showgrid="false"
     fit-margin-top="0"
     fit-margin-left="0"
     fit-margin-right="0"
     fit-margin-bottom="0"
     inkscape:zoom="4.76792"
     inkscape:cx="64.988386"
     inkscape:cy="68.999114"
     inkscape:window-x="72"
     inkscape:window-y="27"
     inkscape:window-maximized="1"
     inkscape:current-layer="svg49" />
  <g
     transform="translate(-4.516,0.001)"
     id="g41"
     inkscape:export-xdpi="599.97821"
     inkscape:export-ydpi="599.97821">
    <radialGradient
       id="a"
       cx="71.861"
       cy="59.294998"
       r="51.368999"
       gradientUnits="userSpaceOnUse">
      <stop
         offset=".374"
         stop-color="#ffd43c"
         id="stop2" />
      <stop
         offset=".467"
         stop-color="#ffd94c"
         id="stop4" />
      <stop
         offset=".648"
         stop-color="#fee163"
         id="stop6" />
      <stop
         offset=".827"
         stop-color="#fee670"
         id="stop8" />
      <stop
         offset="1"
         stop-color="#fee774"
         id="stop10" />
    </radialGradient>
    <circle
       cx="71.861"
       cy="59.296001"
       r="51.368"
       id="circle13"
       style="fill:url(#a)" />
    <radialGradient
       id="b"
       cx="71.777"
       cy="59.294998"
       r="49.863998"
       gradientUnits="userSpaceOnUse">
      <stop
         offset=".374"
         stop-color="#5b9fd3"
         id="stop15" />
      <stop
         offset=".43"
         stop-color="#5595c7"
         id="stop17" />
      <stop
         offset=".575"
         stop-color="#4680b1"
         id="stop19" />
      <stop
         offset=".72"
         stop-color="#3a73a3"
         id="stop21" />
      <stop
         offset=".863"
         stop-color="#336c9b"
         id="stop23" />
      <stop
         offset="1"
         stop-color="#306a99"
         id="stop25" />
    </radialGradient>
    <path
       d="m 79.186,110.142 a 51.587,51.587 0 0 1 -7.325,0.522 c -22.318,0 -41.309,-14.233 -48.397,-34.118 16.524,-10.603 47.716,-25.273 78.314,-31.984 7.983,25.114 -2.139,53.804 -22.592,65.58 z M 69.902,7.968 69.503,7.983 C 69.174,7.998 68.846,8.017 68.518,8.038 L 68.4,8.045 c -0.363,0.024 -0.725,0.053 -1.086,0.084 18.813,8.126 29.767,21.661 34.463,36.433 6.17,-1.353 12.315,-2.382 18.312,-2.99 v -0.001 a 53.834,53.834 0 0 0 -0.647,-1.661 l -0.115,-0.282 a 51.865,51.865 0 0 0 -0.704,-1.622 c -0.025,-0.055 -0.052,-0.109 -0.077,-0.165 -0.23,-0.501 -0.47,-0.998 -0.716,-1.49 l -0.112,-0.226 A 57.038,57.038 0 0 0 116.9,34.576 l -0.132,-0.236 c -0.27,-0.483 -0.546,-0.963 -0.831,-1.437 l -0.074,-0.126 c -0.302,-0.5 -0.615,-0.995 -0.934,-1.483 l -0.171,-0.261 a 52.584,52.584 0 0 0 -2.035,-2.866 c -0.065,-0.085 -0.13,-0.171 -0.198,-0.256 -0.355,-0.46 -0.718,-0.917 -1.089,-1.366 l -0.066,-0.078 a 50.2,50.2 0 0 0 -1.087,-1.263 c -0.066,-0.075 -0.132,-0.151 -0.2,-0.226 a 48.35,48.35 0 0 0 -1.174,-1.264 l -0.171,-0.176 c -0.369,-0.38 -0.743,-0.755 -1.123,-1.124 -0.06,-0.057 -0.118,-0.115 -0.177,-0.173 a 53.515,53.515 0 0 0 -1.259,-1.168 l -0.239,-0.211 c -0.408,-0.363 -0.822,-0.72 -1.241,-1.07 l -0.095,-0.08 a 49.697,49.697 0 0 0 -1.35,-1.076 l -0.281,-0.217 a 49.08,49.08 0 0 0 -1.401,-1.034 l -0.005,-0.003 a 49.724,49.724 0 0 0 -1.426,-0.973 L 99.844,16.213 A 50.601,50.601 0 0 0 98.391,15.3 c -0.062,-0.038 -0.125,-0.073 -0.188,-0.111 -0.449,-0.269 -0.902,-0.53 -1.359,-0.785 l -0.288,-0.161 c -0.498,-0.274 -1,-0.539 -1.509,-0.796 L 94.758,13.303 A 51.454,51.454 0 0 0 93.357,12.63 L 93.125,12.522 A 48.838,48.838 0 0 0 91.551,11.839 C 91.436,11.79 91.319,11.744 91.203,11.695 A 53.949,53.949 0 0 0 89.646,11.09 L 89.561,11.057 A 52.6,52.6 0 0 0 87.536,10.364 51.7,51.7 0 0 0 85.866,9.858 C 85.817,9.844 85.768,9.833 85.721,9.819 A 49.917,49.917 0 0 0 84.134,9.405 L 83.758,9.313 a 53.529,53.529 0 0 0 -1.7,-0.374 L 81.76,8.881 C 81.248,8.781 80.733,8.689 80.217,8.604 L 79.88,8.548 A 54.807,54.807 0 0 0 78.139,8.306 L 77.761,8.263 A 53.553,53.553 0 0 0 76.145,8.103 C 76.067,8.1 75.99,8.092 75.912,8.085 A 52.868,52.868 0 0 0 73.702,7.962 53.534,53.534 0 0 0 71.861,7.926 c -0.404,0 -0.807,0.006 -1.209,0.016 -0.251,0.006 -0.5,0.016 -0.75,0.026 z"
       id="path28"
       style="fill:url(#b)"
       inkscape:connector-curvature="0" />
    <circle
       cx="71.861"
       cy="59.296001"
       r="51.368"
       id="circle30"
       style="fill:none" />
    <radialGradient
       id="c"
       cx="71.777"
       cy="61.803001"
       r="60.150002"
       fx="93.927002"
       fy="105.711"
       gradientTransform="matrix(-0.9999,0.0164,-0.0126,-0.7709,139.809,108.269)"
       gradientUnits="userSpaceOnUse">
      <stop
         offset=".454"
         stop-opacity="0"
         id="stop32" />
      <stop
         offset=".687"
         stop-opacity=".135"
         id="stop34" />
      <stop
         offset=".804"
         stop-opacity=".253"
         id="stop36" />
      <stop
         offset=".951"
         stop-opacity=".49"
         id="stop38" />
    </radialGradient>
  </g>
  <path
     d="m 73.816,8.389 -6.753,63.594 -7.402999,-61.78 -7.846,56.32 -7.136,-34.476 -1.254,4.134 c 0,0 -1.51,4.978 -3.117,10.14 a 616.72,616.72 0 0 1 -2.309,7.282 136.105,136.105 0 0 1 -0.873,2.608 25.767,25.767 0 0 1 -0.455,1.205 c -0.186,0.35 -0.376,0.674 -0.57,0.965 a 5.442,5.442 0 0 1 -0.28,0.384 l -0.002,0.004 -0.002,0.004 a 2.657,2.657 0 0 1 -0.332,0.342 c -0.013,0.013 10e-4,0.006 -0.047,0.04 l -0.021,0.017 -0.02,0.015 c 0.066,-0.054 0,-0.002 -0.046,0.031 a 3.9,3.9 0 0 1 -0.47,0.264 l -0.003,0.002 -0.002,0.002 c -0.549,0.27 -1.48,0.582 -2.613,0.816 h -0.004 c -1.14,0.24 -2.503,0.421 -3.971,0.542 -2.94,0.239 -6.309,0.236 -9.451,0.125 -0.801,-0.03 -1.856,-0.043 -2.803,-0.063 a 51.368,51.368 0 0 0 0.32,4.066 l 2.205,0.268 h -0.013 c 3.207,0.428 6.684,0.76 9.91,0.771 3.22,0.016 6.197,-0.275 8.44,-1.242 l 0.003,-0.002 c 0.353,-0.15 0.717999,-0.328 1.085999,-0.55 l 0.002,-0.003 A 6.496,6.496 0 0 0 39.106,63.359 8.89,8.89 0 0 0 39.533,62.927 l 0.002,-0.002 c 0.109,-0.116 0.201,-0.225 0.287,-0.328 l 0.002,-0.002 0.002,-0.002 c 0.186,-0.224 0.353,-0.45 0.508,-0.676 v -0.002 l 0.002,-0.003 c 0.617,-0.907 1.102,-1.87 1.533,-2.83 v -0.003 l 0.002,-0.002 c 0.423,-0.952 0.788,-1.908 1.371,-3.355 l 8.873,47.465 7.334,-46.191 6.723,53.61 a 51.368,51.368 0 0 0 1.174,0.058 51.368,51.368 0 0 0 0.742,-0.026 l 7.185,-59.58 6.694,50.672 8.99,-41.535 c 0.633,1.206 1.454,2.484 2.74,3.395 0.477,0.354 1.142,0.697 1.951,0.958 0.376,0.122 0.767,0.227 1.174,0.297 l 0.008,0.002 h 0.006 c 0.5,0.08 0.828,0.09 1.09,0.108 h 0.02 c 0.583,0.03 1.124998,0.043 1.649998,0.056 h 0.007 c 1.152001,0.022 7.436001,-0.01 13.540001,-0.046 2.677,-0.016 3.363,-0.022 5.239,-0.034 a 51.368,51.368 0 0 0 0.332,-5.634 51.368,51.368 0 0 0 0,-0.028 c -6.41,-0.131 -17.496,-0.357 -18.963001,-0.4 h -0.006 c -0.586,-0.02 -0.917998,0.028 -1.929998,-0.223 h -0.008 l -0.004,-0.002 c -0.39,-0.092 -1.337,-0.935 -2.193,-2.373 -0.856,-1.438 -1.69,-3.35 -2.4,-5.244 a 81.213,81.213 0 0 1 -2.364,-7.484 l -1.15,-4.516 -6.342,29.164 -7.545,-59.502 A 51.368,51.368 0 0 0 73.816,8.389 Z"
     id="path43"
     inkscape:connector-curvature="0"
     style="fill:#ffffff"
     inkscape:export-xdpi="599.97821"
     inkscape:export-ydpi="599.97821" />
  <path
     d="m 74.707,0.001 -0.89,8.388 A 51.368,51.368 0 0 1 75.809,8.69 L 74.707,0 Z m -7.361,7.927 a 51.368,51.368 0 0 1 2.492,0.125 51.368,51.368 0 0 0 -2.492,-0.125 z m -4.367,0.22 a 51.368,51.368 0 0 0 -2.6,0.314 51.368,51.368 0 0 1 2.6,-0.315 z M 57.9,8.837 a 51.368,51.368 0 0 0 -2.58,0.58 51.368,51.368 0 0 1 2.58,-0.58 z m -4.976,1.191 a 51.368,51.368 0 0 0 -2.531,0.84 51.368,51.368 0 0 1 2.53,-0.84 z m -4.86,1.691 a 51.368,51.368 0 0 0 -2.376,1.063 51.368,51.368 0 0 1 2.376,-1.063 z M 43.4,13.887 a 51.368,51.368 0 0 0 -2.275,1.305 51.368,51.368 0 0 1 2.275,-1.305 z m 51.49,2.12 a 51.368,51.368 0 0 1 0.194,0.119 51.368,51.368 0 0 0 -0.193,-0.12 z m -55.886,0.486 a 51.368,51.368 0 0 0 -2.149,1.535 51.368,51.368 0 0 1 2.149,-1.535 z m 60.003998,2.43 a 51.368,51.368 0 0 1 0.283,0.214 51.368,51.368 0 0 0 -0.283,-0.214 z m -64.146997,0.62 a 51.368,51.368 0 0 0 -1.966,1.73 51.368,51.368 0 0 1 1.966,-1.73 z M 102.811,22.219 a 51.368,51.368 0 0 1 0.367,0.342 51.368,51.368 0 0 0 -0.367,-0.342 z m -71.753999,0.766 a 51.368,51.368 0 0 0 -1.78,1.908 51.368,51.368 0 0 1 1.78,-1.908 z M 106.244,25.841 a 51.368,51.368 0 0 1 0.467,0.533 51.368,51.368 0 0 0 -0.467,-0.533 z M 27.607001,26.796 A 51.368,51.368 0 0 0 26.045,28.848 51.368,51.368 0 0 1 27.607001,26.796 Z M 109.289,29.751 a 51.368,51.368 0 0 1 0.56,0.783 51.368,51.368 0 0 0 -0.56,-0.783 z m -84.733999,1.182 a 51.368,51.368 0 0 0 -1.332,2.172 51.368,51.368 0 0 1 1.332,-2.172 z M 111.941,33.931 a 51.368,51.368 0 0 1 0.61,1.063 51.368,51.368 0 0 0 -0.61,-1.063 z M 21.94,35.346 a 51.368,51.368 0 0 0 -1.125,2.328 51.368,51.368 0 0 1 1.125,-2.328 z m 92.258,3.045 a 51.368,51.368 0 0 1 0.576,1.29 51.368,51.368 0 0 0 -0.576,-1.29 z m -94.417999,1.596 a 51.368,51.368 0 0 0 -0.886,2.43 51.368,51.368 0 0 1 0.886,-2.43 z M 115.993,42.999 a 51.368,51.368 0 0 1 0.533,1.601 51.368,51.368 0 0 0 -0.533,-1.601 z m -97.905999,1.842 a 51.368,51.368 0 0 0 -0.639,2.503 51.368,51.368 0 0 1 0.639,-2.503 z M 117.343,47.784 a 51.368,51.368 0 0 1 0.418,1.861 51.368,51.368 0 0 0 -0.418,-1.861 z M 16.890001,49.823 a 51.368,51.368 0 0 0 -0.389,2.578 51.368,51.368 0 0 1 0.389,-2.578 z M 118.218,52.651 a 51.368,51.368 0 0 1 0.263,2.174 51.368,51.368 0 0 0 -0.263,-2.174 z M 16.197001,54.905 a 51.368,51.368 0 0 0 -0.22,4.393 51.368,51.368 0 0 1 0.22,-4.393 z m 107.710999,0.436 0.035,4.04 c -0.412,-0.008 -3.462,-0.074 -5.23,-0.11 a 51.368,51.368 0 0 1 0,0.027 51.368,51.368 0 0 1 -0.33,5.62 51.368,51.368 0 0 1 -0.002,0.014 l 5.611,-0.035 0.035,4.078 7.94,-4.61 -0.004,-0.987 1.107,-0.006 3.215,3.73 1.64,-1.97 -2.59,-3.061 2.548,-2.897 -0.668,-0.728 -1.063,-1.16 -3.088,3.486 -1.13,0.004 -0.014,-0.979 -8.012,-4.457 z m -5.527,9.591 a 51.368,51.368 0 0 1 -0.46,3.032 51.368,51.368 0 0 0 0.46,-3.032 z M 7.219,60.813 a 303.3,303.3 0 0 0 -4.643,0.033 c -0.56,0.01 -0.986,0.021 -1.267,0.036 -0.141,0.007 -0.185,-0.004 -0.399,0.037 -0.053,0.01 -0.086,-0.021 -0.35,0.127 -0.065,0.037 -0.267,0.21 -0.267,0.21 L 0,61.911 l 0.219,0.76 c 0,0 0.22,0.224 0.295,0.271 0.297,0.187 0.328,0.141 0.384,0.152 0.057,0.012 0.09,0.016 0.123,0.02 l 15.333001,1.86 a 51.368,51.368 0 0 1 0,-0.003 51.368,51.368 0 0 1 -0.320001,-4.052 51.368,51.368 0 0 1 0,-0.012 C 13.194001,60.847 10.031,60.812 7.219,60.813 Z M 117.197,71.43 a 51.368,51.368 0 0 1 -0.383,1.5 51.368,51.368 0 0 0 0.383,-1.5 z m -1.472,4.948 a 51.368,51.368 0 0 1 -0.516,1.414 51.368,51.368 0 0 0 0.516,-1.414 z m -1.954,4.76 a 51.368,51.368 0 0 1 -0.636,1.318 51.368,51.368 0 0 0 0.636,-1.319 z m -2.437,4.568 a 51.368,51.368 0 0 1 -0.727,1.183 51.368,51.368 0 0 0 0.727,-1.183 z m -2.852,4.252 a 51.368,51.368 0 0 1 -0.857,1.127 51.368,51.368 0 0 0 0.857,-1.127 z m -3.267,3.953 a 51.368,51.368 0 0 1 -0.96,1.031 51.368,51.368 0 0 0 0.96,-1.031 z m -3.654,3.615 a 51.368,51.368 0 0 1 -1.053,0.926 51.368,51.368 0 0 0 1.053,-0.926 z m -3.979999,3.22 a 51.368,51.368 0 0 1 -1.147,0.821 51.368,51.368 0 0 0 1.146,-0.82 z m -4.298,2.82 a 51.368,51.368 0 0 1 -1.219,0.696 51.368,51.368 0 0 0 1.22,-0.697 z m -4.521,2.355 a 51.368,51.368 0 0 1 -1.338,0.6 51.368,51.368 0 0 0 1.338,-0.6 z m -39.438,1.412 a 51.368,51.368 0 0 0 0.053,0.02 51.368,51.368 0 0 1 -0.053,-0.02 z m 34.701,0.484 a 51.368,51.368 0 0 1 -1.437,0.479 51.368,51.368 0 0 0 1.437,-0.479 z m -29.882,1.059 a 51.368,51.368 0 0 0 0.232,0.058 51.368,51.368 0 0 1 -0.232,-0.058 z m 24.992,0.355 a 51.368,51.368 0 0 1 -1.557,0.35 51.368,51.368 0 0 0 1.557,-0.35 z m -20.04,0.705 a 51.368,51.368 0 0 0 0.401,0.06 51.368,51.368 0 0 1 -0.4,-0.06 z m 15.061,0.213 a 51.368,51.368 0 0 1 -1.697,0.207 51.368,51.368 0 0 0 1.697,-0.207 z m -10.029,0.356 a 51.368,51.368 0 0 0 2.041,0.101 51.368,51.368 0 0 1 -2.041,-0.101 z m 2.045,0.101 0.978,7.797 0.938,-7.764 a 51.368,51.368 0 0 1 -0.742,0.026 51.368,51.368 0 0 1 -1.174,-0.059 z"
     id="path45"
     inkscape:connector-curvature="0"
     inkscape:export-xdpi="599.97821"
     inkscape:export-ydpi="599.97821" />
  <circle
     cx="67.261009"
     cy="59.297001"
     r="51.368999"
     id="circle47"
     style="opacity:0.79000005;fill:url(#c)"
     inkscape:export-xdpi="599.97821"
     inkscape:export-ydpi="599.97821" />
</svg>
