<?xml version="1.0" encoding="UTF-8" standalone="no"?>
<!-- Created with Inkscape (http://www.inkscape.org/) -->

<svg
   xmlns:dc="http://purl.org/dc/elements/1.1/"
   xmlns:cc="http://creativecommons.org/ns#"
   xmlns:rdf="http://www.w3.org/1999/02/22-rdf-syntax-ns#"
   xmlns:svg="http://www.w3.org/2000/svg"
   xmlns="http://www.w3.org/2000/svg"
   xmlns:sodipodi="http://sodipodi.sourceforge.net/DTD/sodipodi-0.dtd"
   xmlns:inkscape="http://www.inkscape.org/namespaces/inkscape"
   version="1.1"
   id="svg2"
   width="950"
   height="950"
   viewBox="0 0 950 950"
   sodipodi:docname="dascore_qr.svg"
   inkscape:version="0.92.5 (2060ec1f9f, 2020-04-08)">
  <metadata
     id="metadata8">
    <rdf:RDF>
      <cc:Work
         rdf:about="">
        <dc:format>image/svg+xml</dc:format>
        <dc:type
           rdf:resource="http://purl.org/dc/dcmitype/StillImage" />
        <dc:title></dc:title>
      </cc:Work>
    </rdf:RDF>
  </metadata>
  <defs
     id="defs6" />
  <sodipodi:namedview
     pagecolor="#ffffff"
     bordercolor="#666666"
     borderopacity="1"
     objecttolerance="10"
     gridtolerance="10"
     guidetolerance="10"
     inkscape:pageopacity="0"
     inkscape:pageshadow="2"
     inkscape:window-width="1848"
     inkscape:window-height="1016"
     id="namedview4"
     showgrid="false"
     fit-margin-top="0"
     fit-margin-left="0"
     fit-margin-right="0"
     fit-margin-bottom="0"
     inkscape:zoom="0.78666667"
     inkscape:cx="483.89831"
     inkscape:cy="492.79661"
     inkscape:window-x="72"
     inkscape:window-y="27"
     inkscape:window-maximized="1"
     inkscape:current-layer="svg2" />
  <path
     style="fill:#000000"
     d="M 0,817 V 684 H 133 266 V 817 950 H 133 0 Z m 228,0 V 722 H 133 38 v 95 95 h 95 95 z m -152,0 v -57 h 57 57 v 57 57 H 133 76 Z m 228,57 v -76 h 19 19 v -19 -19 h 19 19 v 19 19 h 19 19 v 38 38 h 57 57 v -19 -19 h 38 38 v -38 -38 h -19 -19 v 19 19 h -38 -38 v -57 -57 h 19 19 v -57 -57 h -19 -19 v -19 -19 h -19 -19 v 38 38 h 19 19 v 19 19 h -19 -19 v -19 -19 h -95 -95 v 19 19 h -57 -57 v -19 -19 h -19 -19 v 19 19 H 95 76 v -19 -19 h 19 19 V 589 570 H 76 38 v 19 19 H 19 0 V 589 570 H 19 38 V 532 494 H 19 0 v -19 -19 h 19 19 v 19 19 h 19 19 v -19 -19 h 19 19 V 437 418 H 95 76 V 399 380 H 38 0 v -38 -38 h 76 76 v 19 19 h 19 19 v 19 19 h 38 38 v 19 19 h -19 -19 v 19 19 h 19 19 v 19 19 h -19 -19 v 19 19 h 19 19 v 19 19 h 38 38 v -19 -19 h 38 38 v -19 -19 h -57 -57 v -19 -19 h 19 19 v -38 -38 h -19 -19 v -38 -38 h 19 19 v 38 38 h 19 19 v -95 -95 h 19 19 v -19 -19 h -38 -38 v 19 19 H 323 304 V 133 76 h 19 19 V 57 38 H 323 304 V 19 0 h 19 19 v 19 19 h 19 19 V 19 0 h 19 19 v 19 19 h 19 19 V 19 0 h 19 19 v 19 19 h 19 19 V 19 0 h 19 19 v 38 38 h 19 19 V 38 0 h 19 19 v 38 38 h -19 -19 v 19 19 h -19 -19 v 19 19 h 38 38 v 76 76 h 19 19 v 19 19 h -57 -57 v -38 -38 h -19 -19 v -57 -57 h -19 -19 v 19 19 h -19 -19 v 19 19 h 19 19 v 38 38 h 19 19 v 57 57 h -57 -57 v 38 38 h 19 19 v -19 -19 h 19 19 v 38 38 h 19 19 v -38 -38 h 38 38 v 19 19 h 19 19 v -38 -38 h -19 -19 v -19 -19 h 38 38 v 38 38 h 19 19 v 19 19 h 19 19 v -19 -19 h 19 19 v -19 -19 h -19 -19 v -19 -19 h -19 -19 v -19 -19 h 19 19 v -19 -19 h 57 57 v 19 19 h 19 19 v -19 -19 h 19 19 v 19 19 h -19 -19 v 19 19 h -19 -19 v -19 -19 h -57 -57 v 19 19 h 19 19 v 19 19 h 38 38 v 19 19 h 38 38 v 38 38 h -19 -19 v 19 19 h 19 19 v 95 95 h -19 -19 v -19 -19 h -38 -38 v -38 -38 h -19 -19 v 57 57 h 19 19 v 19 19 h 57 57 v 19 19 h -19 -19 v 19 19 h -19 -19 v 19 19 h 38 38 v 19 19 H 836 722 v -19 -19 h 19 19 v -57 -57 h -19 -19 v 38 38 h -76 -76 v 19 19 h -57 -57 v 19 19 h -19 -19 v -19 -19 h -38 -38 v 19 19 h -19 -19 z m 532,0 v -38 h -19 -19 v 38 38 h 19 19 z M 380,836 v -38 h -19 -19 v 38 38 h 19 19 z M 760,703 v -57 h -57 -57 v 57 57 h 57 57 z m -76,0 v -19 h 19 19 v 19 19 h -19 -19 z m -76,0 v -19 h -19 -19 v 19 19 h 19 19 z m 304,-38 v -19 h -19 -19 v 19 19 h 19 19 z M 608,627 v -19 h 19 19 v -19 -19 h 19 19 v 19 19 h 19 19 v -19 -19 h 19 19 v -19 -19 h -38 -38 v -19 -19 h -19 -19 v 38 38 h -19 -19 v -19 -19 h -38 -38 v 19 19 h 19 19 v 38 38 h 19 19 z M 266,589 v -19 h -19 -19 v -19 -19 h -19 -19 v -19 -19 h 19 19 v -19 -19 h -19 -19 v -19 -19 h -19 -19 v 19 19 h -19 -19 v 19 19 H 95 76 v 19 19 h 38 38 v 19 19 h 38 38 v 19 19 h 19 19 z M 152,475 v -19 h 19 19 v 19 19 h -19 -19 z m 760,114 v -19 h -38 -38 v -19 -19 h 38 38 v -19 -19 h -38 -38 v -19 -19 h -19 -19 v 76 76 h 57 57 z M 152,361 V 342 H 114 76 v 19 19 h 38 38 z m 304,0 v -19 h -19 -19 v 19 19 h 19 19 z m 0,-95 v -38 h -19 -19 v 38 38 h 19 19 z m 152,-38 v -38 h -19 -19 v 38 38 h 19 19 z M 456,133 v -19 h 19 19 V 95 76 h -38 -38 v 38 38 h 19 19 z M 570,95 V 76 h -19 -19 v 19 19 h 19 19 z m 76,836 v -19 h 19 19 v 19 19 H 665 646 Z M 418,741 v -19 h -19 -19 v -19 -19 h -38 -38 v -19 -19 h 38 38 v 19 19 h 19 19 v 19 19 h 19 19 v 19 19 H 437 418 Z M 228,323 v -19 h 19 19 v 19 19 H 247 228 Z M 0,133 V 0 H 133 266 V 133 266 H 133 0 Z m 228,0 V 38 H 133 38 v 95 95 h 95 95 z M 76,133 V 76 h 57 57 v 57 57 H 133 76 Z m 228,114 v -19 h 19 19 v 19 19 H 323 304 Z M 684,133 V 0 H 817 950 V 133 266 H 817 684 Z m 228,0 V 38 h -95 -95 v 95 95 h 95 95 z m -152,0 V 76 h 57 57 v 57 57 h -57 -57 z"
     id="path25"
     inkscape:connector-curvature="0" />
</svg>
